<svg xmlns="http://www.w3.org/2000/svg" viewBox="0 0 520 132" role="img" aria-labelledby="title desc">
  <title id="title">Galaxy Barbershop Zurich logo</title>
  <desc id="desc">Minimal horizontal Galaxy Barbershop logo.</desc>
  <rect width="520" height="132" rx="18" fill="#101111"/>
  <g transform="translate(20 20)">
    <rect width="92" height="92" rx="22" fill="none" stroke="#c99a3d" stroke-width="3"/>
    <path d="M61.3 30.7c-4-3.8-9.4-5.9-15.5-5.9-12.5 0-21.9 9.4-21.9 21.4 0 12.2 9.4 21.2 22.1 21.2 6.3 0 11.9-1.9 15.8-5.4V50.9H46.2v-9h24.7v24.3C64.7 73.1 56.1 76.8 45.8 76.8 27.9 76.8 15.3 63.9 15.3 46.3 15.3 28.8 28.2 15.4 46 15.4c9.4 0 17.7 3.3 23.4 9l-8.1 6.3Z" fill="#c99a3d"/>
    <path d="M48 50h18" stroke="#101111" stroke-width="4" stroke-linecap="round"/>
  </g>
  <g transform="translate(142 38)">
    <text x="0" y="34" fill="#fffaf0" font-family="Georgia, 'Times New Roman', serif" font-size="40" font-weight="700">Galaxy</text>
    <text x="0" y="74" fill="#c99a3d" font-family="Georgia, 'Times New Roman', serif" font-size="40" font-weight="700">Barbershop</text>
    <path d="M282 40h66" stroke="#c99a3d" stroke-width="2"/>
    <text x="282" y="66" fill="#d9d0bf" font-family="Arial, sans-serif" font-size="13" font-weight="800" letter-spacing="2">ZURICH</text>
  </g>
</svg>
